Land_normalized_Motion_pl11
version=1
nRows=16
nColumns=43
inDegrees=yes
endheader
time		pelvis_tilt		pelvis_list		pelvis_rotation		pelvis_tx		pelvis_ty		pelvis_tz		hip_flexion_r		hip_adduction_r		hip_rotation_r		knee_angle_r		ankle_angle_r		subtalar_angle_r		mtp_angle_r		hip_flexion_l		hip_adduction_l		hip_rotation_l		knee_angle_l		ankle_angle_l		subtalar_angle_l		mtp_angle_l		lumbar_extension		lumbar_bending		lumbar_rotation		neck_flexion		neck_lateral_bending		neck_rotation		arm_flex_r		arm_add_r		arm_rot_r		elbow_flex_r		pro_sup_r		wrist_flex_r		wrist_dev_r		hand_finger_flex_r		arm_flex_l		arm_add_l		arm_rot_l		elbow_flex_l		pro_sup_l		wrist_flex_l		wrist_dev_l		hand_finger_flex_l		
1.165000		-3.880137		15.890231		93.956915		-0.011837		0.694298		0.409537		44.652309		-5.659173		-2.936065		-95.732344		19.456867		-8.514745		5.604683		43.924947		3.565152		-3.247049		-90.089230		16.165024		-19.360139		18.012999		-51.828935		-1.448316		-3.190341		-10.027657		2.099115		-2.545732		-22.433441		-33.506425		-16.960348		67.546614		71.566316		-32.245249		-1.024174		24.092057		-28.182133		-41.003146		-18.573884		73.396095		112.017277		-20.500839		4.287060		90.000210		
1.167576		-3.968666		16.237468		94.033549		-0.011973		0.688118		0.408930		45.414527		-5.704353		-2.727125		-97.477751		19.180729		-8.565010		5.678063		44.501178		3.724304		-3.159957		-91.670995		16.295814		-19.301714		18.069536		-52.895948		-1.424668		-3.297200		-8.819155		2.186889		-2.598285		-19.852340		-34.325123		-15.836469		67.403215		71.777756		-32.119955		-0.825709		24.097013		-25.548077		-41.641203		-17.765015		73.222443		112.223288		-20.400923		4.231358		90.000210		
1.170152		-4.204402		16.377314		94.020027		-0.011908		0.681781		0.408036		46.518601		-5.764840		-2.246252		-99.281632		18.276939		-8.649818		6.146584		45.239544		3.862704		-3.284742		-93.169670		16.308146		-18.994426		18.273256		-53.587311		-1.610585		-3.389063		-8.331265		2.172078		-2.795549		-17.256765		-35.108522		-14.395764		67.149113		72.377238		-32.652275		-0.591617		24.102811		-22.679303		-42.356243		-16.554455		72.870545		112.877839		-20.244502		4.441123		90.000210		
1.172727		-4.333227		16.666728		94.037788		-0.011868		0.675795		0.407285		47.387263		-5.784311		-1.883184		-100.956023		17.517339		-8.413110		6.412702		45.836966		3.922200		-3.291504		-94.678934		16.209909		-18.716055		18.422313		-54.529577		-1.677134		-3.486386		-7.376762		2.244193		-2.919218		-14.657959		-35.881711		-13.137286		67.046760		72.717995		-32.569746		-0.425397		24.213816		-20.002481		-42.967217		-15.617988		72.764843		113.343690		-20.146470		4.578983		90.000210		
1.175303		-4.540794		16.882218		94.026886		-0.011789		0.669958		0.406412		48.323017		-5.815733		-1.394341		-102.570267		16.709442		-8.212833		7.257745		46.439774		3.978219		-3.414537		-96.061576		16.200115		-18.369977		18.842416		-55.354050		-1.840247		-3.585528		-6.613537		2.299289		-3.069744		-12.002729		-36.522624		-11.899605		66.831922		73.249496		-32.717623		-0.283702		24.501018		-17.183823		-43.481061		-14.631923		72.630954		114.080156		-20.019901		4.933199		90.000210		
1.177879		-4.869111		17.004819		93.961086		-0.011633		0.664046		0.405468		49.382287		-5.861015		-0.705192		-104.137397		15.556681		-8.080739		11.074821		47.085890		4.040205		-3.706180		-97.369059		16.120724		-18.103425		20.488605		-56.071348		-2.164772		-3.669325		-5.871321		2.390211		-3.279250		-9.381991		-36.968186		-10.849912		66.582925		74.210472		-33.459621		-0.162437		26.081835		-14.253833		-43.845168		-13.713250		72.650099		115.479591		-19.701000		6.072794		90.000210		
1.180455		-5.026078		17.278881		93.997471		-0.011541		0.658639		0.404537		50.162170		-5.869332		-0.285498		-105.602141		14.841047		-7.730095		11.228287		47.571520		4.053559		-3.751099		-98.682990		16.128721		-17.601586		20.661541		-56.927256		-2.249749		-3.782044		-5.158492		2.443844		-3.383545		-6.674827		-37.502354		-9.596851		66.380805		74.681625		-33.507795		-0.141646		25.984623		-11.466704		-44.260565		-12.742622		72.550123		115.981943		-19.625292		5.924794		90.000210		
1.183030		-5.287248		17.454260		93.970546		-0.011358		0.653218		0.403482		51.036878		-5.861989		0.321174		-107.032178		14.252105		-7.308137		11.754993		48.097307		4.053935		-3.967384		-99.917892		16.343103		-16.930949		21.046677		-57.624381		-2.485141		-3.867252		-4.663754		2.491462		-3.537274		-3.973529		-37.875464		-8.403870		66.059589		75.496080		-33.872566		-0.209571		25.886060		-8.504841		-44.536587		-11.715306		72.384007		116.954873		-19.539755		5.908823		90.000210		
1.185606		-5.454611		17.687280		93.997811		-0.011301		0.647970		0.402540		51.805224		-5.855638		0.794398		-108.372350		13.590637		-6.823078		12.275590		48.586052		4.052343		-4.043096		-101.157108		16.349732		-16.417142		21.390599		-58.403942		-2.586510		-3.948756		-4.027660		2.564601		-3.675446		-1.278338		-38.281440		-7.253888		65.840831		76.199298		-33.945062		-0.200116		25.936937		-5.640321		-44.781026		-10.750912		72.374321		117.820736		-19.406786		5.927275		90.000210		
1.188182		-5.566741		17.925151		94.049125		-0.011278		0.642810		0.401631		52.523123		-5.825453		1.212169		-109.656308		12.966860		-6.314527		12.728850		49.074220		4.023939		-4.066089		-102.379232		16.313805		-15.912437		21.697462		-59.182167		-2.619122		-4.015915		-3.351539		2.649531		-3.801565		1.423579		-38.663838		-6.096843		65.660006		76.895763		-33.966705		-0.216717		25.973719		-2.799971		-44.974812		-9.807202		72.414962		118.639625		-19.260267		5.914030		90.000210		
1.190758		-5.701269		18.110893		94.060030		-0.011203		0.637699		0.400664		53.263281		-5.776299		1.684673		-110.888031		12.469399		-5.742012		13.518086		49.574817		3.965808		-4.144901		-103.543368		16.417650		-15.290491		22.195638		-59.854573		-2.705512		-4.040294		-2.861084		2.705606		-3.948613		4.154214		-38.925047		-4.964836		65.356941		77.869361		-34.217673		-0.317391		26.024860		0.176933		-45.028420		-8.818695		72.367436		119.794233		-19.064383		5.973507		90.000210		
1.193333		-5.737145		18.313509		94.101459		-0.011145		0.632631		0.399827		53.957241		-5.713192		2.020207		-112.052152		11.840118		-5.200372		14.358266		50.100764		3.884139		-4.090883		-104.720278		16.319469		-14.760543		22.737885		-60.575598		-2.690123		-4.024912		-2.164680		2.764552		-4.086572		6.857418		-39.254642		-3.794890		65.165508		78.686228		-34.248703		-0.381723		26.202260		3.046028		-45.083193		-7.901077		72.504728		120.764307		-18.839849		5.986330		90.000210		
1.195909		-5.751265		18.458811		94.112041		-0.011063		0.627595		0.398971		54.671417		-5.617512		2.362338		-113.158084		11.306043		-4.628869		15.711600		50.657244		3.743844		-4.060217		-105.841410		16.325739		-14.149560		23.594870		-61.197661		-2.679154		-3.956059		-1.598779		2.798869		-4.239869		9.585132		-39.485657		-2.642860		64.884170		79.757016		-34.486344		-0.533437		26.474474		6.013280		-44.995874		-6.969475		72.566359		122.038682		-18.541354		6.089098		90.000210		
1.198485		-5.703365		18.661179		94.144481		-0.011011		0.622765		0.398194		55.277907		-5.526052		2.576182		-114.209836		10.818346		-4.167601		15.978105		51.162031		3.601301		-3.967157		-106.945942		16.199827		-13.818472		23.817399		-61.867816		-2.582352		-3.935503		-1.035659		2.810138		-4.338535		12.461517		-39.754267		-1.319470		64.633549		80.255029		-34.240691		-0.536805		26.520869		8.858852		-44.973374		-6.008217		72.586434		122.536980		-18.419354		6.011387		90.000210		
1.201061		-5.568949		18.770063		94.139484		-0.010981		0.617847		0.397413		55.949389		-5.389576		2.727963		-115.194934		10.304800		-3.712286		17.452985		51.765862		3.383611		-3.813112		-108.023575		16.121041		-13.349303		24.976959		-62.413597		-2.448262		-3.801476		-0.523031		2.798132		-4.446471		15.309445		-39.954709		-0.017775		64.306062		81.160243		-34.399025		-0.693783		26.895437		11.739252		-44.784636		-5.089987		72.646662		123.547509		-18.268098		6.191077		90.000210		
1.203636		-5.405822		18.836513		94.124734		-0.010929		0.612956		0.396673		56.639946		-5.251447		2.834667		-116.129158		9.775986		-3.275426		19.231232		52.414928		3.138724		-3.650133		-109.066981		15.991142		-12.922300		26.377693		-62.922443		-2.302400		-3.638962		0.057745		2.782483		-4.557773		18.127814		-40.119581		1.259442		64.016527		82.113519		-34.620010		-0.878366		27.383993		14.589383		-44.548960		-4.199556		72.753698		124.555791		-18.117750		6.410309		90.000210		
